<svg width="524" height="523" viewBox="0 0 524 523" fill="none" xmlns="http://www.w3.org/2000/svg">
<path fill-rule="evenodd" clip-rule="evenodd" d="M261.765 24.5622C317.597 18.2876 383.796 -10.1704 426.222 26.0194C469.159 62.6448 436.182 133.942 452.66 187.397C468.583 239.051 537.74 279.625 520.16 330.758C502.534 382.027 421.839 372.625 377.797 405.143C332.496 438.591 318.076 515.23 261.765 521.543C206.178 527.775 167.632 468.796 124.745 433.512C85.2418 401.012 28.8243 374.887 22.4642 324.665C16.1187 274.559 76.6238 242.277 94.5333 194.948C111.208 150.881 89.3358 93.9946 122.557 60.1469C156.667 25.3935 212.932 30.0504 261.765 24.5622Z" stroke="#B1C5BD"/>
<path fill-rule="evenodd" clip-rule="evenodd" d="M233.065 16.4011C287.337 10.1875 351.686 -17.9937 392.926 17.8441C434.663 54.1133 402.608 124.717 418.625 177.652C434.103 228.803 501.329 268.983 484.24 319.618C467.106 370.388 388.666 361.078 345.854 393.28C301.819 426.402 287.802 502.296 233.065 508.548C179.031 514.719 141.563 456.314 99.8741 421.373C61.4746 389.189 6.63357 363.318 0.451201 313.585C-5.71693 263.966 53.0974 231.998 70.5064 185.129C86.7151 141.491 65.4541 85.158 97.747 51.6396C130.904 17.2243 185.597 21.8359 233.065 16.4011Z" fill="#234336"/>
</svg>
