<svg width="960" height="523" viewBox="0 0 960 523" fill="none" xmlns="http://www.w3.org/2000/svg">
<path fill-rule="evenodd" clip-rule="evenodd" d="M697.765 24.5622C753.597 18.2876 819.796 -10.1704 862.222 26.0194C905.159 62.6448 872.182 133.942 888.66 187.397C904.583 239.051 973.74 279.625 956.16 330.758C938.534 382.027 857.839 372.625 813.797 405.143C768.496 438.591 754.076 515.23 697.765 521.543C642.178 527.775 603.632 468.796 560.745 433.512C521.242 401.012 464.824 374.887 458.464 324.665C452.119 274.559 512.624 242.277 530.533 194.948C547.208 150.881 525.336 93.9946 558.557 60.1469C592.667 25.3935 648.932 30.0504 697.765 24.5622Z" stroke="#B1C5BD"/>
<path fill-rule="evenodd" clip-rule="evenodd" d="M669.065 16.4011C723.337 10.1875 787.686 -17.9937 828.926 17.8441C870.663 54.1133 838.608 124.717 854.625 177.652C870.103 228.803 937.329 268.983 920.24 319.618C903.106 370.388 824.666 361.078 781.854 393.28C737.819 426.402 723.802 502.296 669.065 508.548C615.031 514.719 577.563 456.314 535.874 421.373C497.475 389.189 442.634 363.318 436.451 313.585C430.283 263.966 489.097 231.998 506.506 185.129C522.715 141.491 501.454 85.158 533.747 51.6396C566.904 17.2243 621.597 21.8359 669.065 16.4011Z" fill="#234336"/>
<g filter="url(#filter0_d)">
<rect x="32" y="72" width="669" height="344" rx="12" fill="#FCFCFC"/>
</g>
<path d="M71.3 142V141.68L72.9 140.88V129.92L71.3 129.12V128.8H76.36C77.24 128.8 78.0267 128.913 78.72 129.14C79.4267 129.353 79.98 129.68 80.38 130.12C80.78 130.547 80.98 131.093 80.98 131.76C80.98 132.44 80.7533 133.067 80.3 133.64C79.8467 134.2 79.1933 134.6 78.34 134.84C79.5267 135 80.4533 135.373 81.12 135.96C81.7867 136.533 82.12 137.267 82.12 138.16C82.12 138.893 81.8867 139.553 81.42 140.14C80.9667 140.713 80.34 141.167 79.54 141.5C78.74 141.833 77.8333 142 76.82 142H71.3ZM75.9 129.9H74.7V134.64H76.02C76.9667 134.64 77.7067 134.44 78.24 134.04C78.7733 133.627 79.04 133.053 79.04 132.32C79.04 130.707 77.9933 129.9 75.9 129.9ZM76.66 135.74H74.7V140.9H76.8C77.8533 140.9 78.68 140.66 79.28 140.18C79.88 139.7 80.18 139.08 80.18 138.32C80.18 137.413 79.8733 136.76 79.26 136.36C78.66 135.947 77.7933 135.74 76.66 135.74ZM88.7594 142.2C87.8794 142.2 87.106 141.993 86.4394 141.58C85.786 141.167 85.2727 140.607 84.8994 139.9C84.5394 139.193 84.3594 138.393 84.3594 137.5C84.3594 136.607 84.5394 135.807 84.8994 135.1C85.2727 134.393 85.786 133.833 86.4394 133.42C87.106 133.007 87.8794 132.8 88.7594 132.8C89.6394 132.8 90.406 133.007 91.0594 133.42C91.726 133.833 92.2394 134.393 92.5994 135.1C92.9727 135.807 93.1594 136.607 93.1594 137.5C93.1594 138.393 92.9727 139.193 92.5994 139.9C92.2394 140.607 91.726 141.167 91.0594 141.58C90.406 141.993 89.6394 142.2 88.7594 142.2ZM89.0394 141.34C89.5727 141.34 90.0127 141.173 90.3594 140.84C90.706 140.507 90.9594 140.08 91.1194 139.56C91.2794 139.027 91.3594 138.473 91.3594 137.9C91.3594 137.193 91.2594 136.513 91.0594 135.86C90.8727 135.207 90.566 134.673 90.1394 134.26C89.726 133.847 89.186 133.64 88.5194 133.64C87.9727 133.64 87.526 133.807 87.1794 134.14C86.8327 134.473 86.5727 134.9 86.3994 135.42C86.2394 135.94 86.1594 136.493 86.1594 137.08C86.1594 137.787 86.2594 138.467 86.4594 139.12C86.6594 139.773 86.9727 140.307 87.3994 140.72C87.826 141.133 88.3727 141.34 89.0394 141.34ZM95.2002 142V141.68L96.4602 141.04V135.08L95.2602 134.04V133.9L97.7402 132.8H97.8602L98.0402 134.5H98.1202C98.4268 134.007 98.7068 133.64 98.9602 133.4C99.2268 133.147 99.4735 132.987 99.7002 132.92C99.9268 132.84 100.153 132.8 100.38 132.8C100.487 132.8 100.607 132.82 100.74 132.86C100.887 132.9 101.007 132.94 101.1 132.98C101.247 133.047 101.38 133.127 101.5 133.22C101.633 133.313 101.7 133.42 101.7 133.54C101.7 133.66 101.673 133.78 101.62 133.9L101.22 134.88H101.08L100.32 134.58C100.173 134.513 100.027 134.473 99.8802 134.46C99.7468 134.447 99.6135 134.44 99.4802 134.44C98.9202 134.44 98.4468 134.727 98.0602 135.3V141.04L99.4802 141.68V142H95.2002ZM103.069 142V141.68L104.329 141.04V135.08L103.129 134.04V133.9L105.609 132.8H105.729L105.909 134.28H106.009C106.516 133.773 107.003 133.4 107.469 133.16C107.949 132.92 108.476 132.8 109.049 132.8C109.836 132.8 110.476 133 110.969 133.4C111.476 133.787 111.729 134.367 111.729 135.14V141.04L112.989 141.68V142H108.709V141.68L110.129 141.04V136.08C110.129 135.493 109.943 135.047 109.569 134.74C109.209 134.433 108.736 134.28 108.149 134.28C107.789 134.28 107.389 134.34 106.949 134.46C106.523 134.58 106.183 134.753 105.929 134.98V141.04L107.349 141.68V142H103.069ZM121.87 142.2C121.243 142.2 120.723 142.02 120.31 141.66C119.897 141.287 119.69 140.773 119.69 140.12C119.69 139.467 119.93 138.9 120.41 138.42C120.903 137.94 121.723 137.567 122.87 137.3L124.77 136.86V135.4C124.77 134.947 124.583 134.56 124.21 134.24C123.85 133.907 123.437 133.74 122.97 133.74C122.463 133.74 122.11 133.88 121.91 134.16C121.71 134.427 121.61 134.787 121.61 135.24V135.8L121.51 135.9H120.47C120.27 135.9 120.13 135.867 120.05 135.8C119.983 135.733 119.95 135.58 119.95 135.34C119.95 135.047 120.037 134.747 120.21 134.44C120.383 134.133 120.65 133.867 121.01 133.64C121.383 133.4 121.77 133.2 122.17 133.04C122.583 132.88 123.023 132.8 123.49 132.8C123.957 132.8 124.41 132.867 124.85 133C125.303 133.133 125.67 133.36 125.95 133.68C126.23 133.987 126.37 134.42 126.37 134.98V140.66C126.463 140.753 126.597 140.833 126.77 140.9C126.943 140.967 127.183 141 127.49 141H128.25L128.31 141.04V141.1C128.15 141.393 127.91 141.653 127.59 141.88C127.283 142.093 126.903 142.2 126.45 142.2C126.037 142.2 125.697 142.093 125.43 141.88C125.177 141.653 124.997 141.36 124.89 141H124.77C124.423 141.347 123.99 141.633 123.47 141.86C122.963 142.087 122.43 142.2 121.87 142.2ZM121.25 139.72C121.25 140.547 121.75 140.96 122.75 140.96C123.07 140.96 123.383 140.927 123.69 140.86C124.01 140.793 124.37 140.673 124.77 140.5V137.54C123.703 137.74 122.923 137.953 122.43 138.18C121.937 138.393 121.617 138.627 121.47 138.88C121.323 139.133 121.25 139.413 121.25 139.72ZM129.495 142V141.68L130.755 141.04V135.08L129.555 134.04V133.9L132.035 132.8H132.155L132.335 134.28H132.435C132.942 133.773 133.428 133.4 133.895 133.16C134.375 132.92 134.902 132.8 135.475 132.8C136.262 132.8 136.902 133 137.395 133.4C137.902 133.787 138.155 134.367 138.155 135.14V141.04L139.415 141.68V142H135.135V141.68L136.555 141.04V136.08C136.555 135.493 136.368 135.047 135.995 134.74C135.635 134.433 135.162 134.28 134.575 134.28C134.215 134.28 133.815 134.34 133.375 134.46C132.948 134.58 132.608 134.753 132.355 134.98V141.04L133.775 141.68V142H129.495ZM144.536 142.2C143.869 142.2 143.269 142.033 142.736 141.7C142.216 141.367 141.802 140.9 141.496 140.3C141.202 139.687 141.056 138.96 141.056 138.12C141.056 136.987 141.276 136.027 141.716 135.24C142.156 134.44 142.742 133.833 143.476 133.42C144.209 133.007 145.009 132.8 145.876 132.8C146.249 132.8 146.576 132.82 146.856 132.86C147.136 132.887 147.389 132.927 147.616 132.98V129.28L146.316 128.24V128.1L149.096 127H149.216V141.1L150.636 141.68V142H147.816L147.656 140.98H147.516C147.009 141.407 146.516 141.72 146.036 141.92C145.569 142.107 145.069 142.2 144.536 142.2ZM142.656 137.66C142.656 138.767 142.949 139.573 143.536 140.08C144.122 140.573 144.822 140.82 145.636 140.82C145.956 140.82 146.282 140.773 146.616 140.68C146.962 140.573 147.296 140.42 147.616 140.22V134.62C147.296 134.34 146.976 134.133 146.656 134C146.349 133.853 146.002 133.78 145.616 133.78C145.082 133.78 144.589 133.913 144.136 134.18C143.696 134.433 143.336 134.847 143.056 135.42C142.789 135.98 142.656 136.727 142.656 137.66ZM157.388 142V141.68L158.648 141.04V135.08L157.448 134.04V133.9L159.928 132.8H160.048L160.228 134.5H160.308C160.614 134.007 160.894 133.64 161.148 133.4C161.414 133.147 161.661 132.987 161.888 132.92C162.114 132.84 162.341 132.8 162.568 132.8C162.674 132.8 162.794 132.82 162.928 132.86C163.074 132.9 163.194 132.94 163.288 132.98C163.434 133.047 163.568 133.127 163.688 133.22C163.821 133.313 163.888 133.42 163.888 133.54C163.888 133.66 163.861 133.78 163.808 133.9L163.408 134.88H163.268L162.508 134.58C162.361 134.513 162.214 134.473 162.068 134.46C161.934 134.447 161.801 134.44 161.668 134.44C161.108 134.44 160.634 134.727 160.248 135.3V141.04L161.668 141.68V142H157.388ZM167.612 142.2C166.986 142.2 166.466 142.02 166.052 141.66C165.639 141.287 165.432 140.773 165.432 140.12C165.432 139.467 165.672 138.9 166.152 138.42C166.646 137.94 167.466 137.567 168.612 137.3L170.512 136.86V135.4C170.512 134.947 170.326 134.56 169.952 134.24C169.592 133.907 169.179 133.74 168.712 133.74C168.206 133.74 167.852 133.88 167.652 134.16C167.452 134.427 167.352 134.787 167.352 135.24V135.8L167.252 135.9H166.212C166.012 135.9 165.872 135.867 165.792 135.8C165.726 135.733 165.692 135.58 165.692 135.34C165.692 135.047 165.779 134.747 165.952 134.44C166.126 134.133 166.392 133.867 166.752 133.64C167.126 133.4 167.512 133.2 167.912 133.04C168.326 132.88 168.766 132.8 169.232 132.8C169.699 132.8 170.152 132.867 170.592 133C171.046 133.133 171.412 133.36 171.692 133.68C171.972 133.987 172.112 134.42 172.112 134.98V140.66C172.206 140.753 172.339 140.833 172.512 140.9C172.686 140.967 172.926 141 173.232 141H173.992L174.052 141.04V141.1C173.892 141.393 173.652 141.653 173.332 141.88C173.026 142.093 172.646 142.2 172.192 142.2C171.779 142.2 171.439 142.093 171.172 141.88C170.919 141.653 170.739 141.36 170.632 141H170.512C170.166 141.347 169.732 141.633 169.212 141.86C168.706 142.087 168.172 142.2 167.612 142.2ZM166.992 139.72C166.992 140.547 167.492 140.96 168.492 140.96C168.812 140.96 169.126 140.927 169.432 140.86C169.752 140.793 170.112 140.673 170.512 140.5V137.54C169.446 137.74 168.666 137.953 168.172 138.18C167.679 138.393 167.359 138.627 167.212 138.88C167.066 139.133 166.992 139.413 166.992 139.72ZM177.357 130.38C177.011 130.38 176.724 130.267 176.497 130.04C176.271 129.8 176.157 129.513 176.157 129.18C176.157 128.833 176.271 128.547 176.497 128.32C176.724 128.093 177.011 127.98 177.357 127.98C177.704 127.98 177.991 128.093 178.217 128.32C178.444 128.547 178.557 128.833 178.557 129.18C178.557 129.513 178.444 129.8 178.217 130.04C177.991 130.267 177.704 130.38 177.357 130.38ZM175.357 142V141.68L176.617 141.04V135.08L175.417 134.04V133.9L178.097 132.8H178.217V141.04L179.477 141.68V142H175.357ZM184.807 142.2C184.18 142.2 183.64 142.147 183.187 142.04C182.734 141.933 182.274 141.76 181.807 141.52V139.28H182.087L182.727 140.38C183.14 141.113 183.814 141.48 184.747 141.48C185.28 141.48 185.694 141.353 185.987 141.1C186.294 140.847 186.447 140.5 186.447 140.06C186.447 139.673 186.354 139.373 186.167 139.16C185.98 138.947 185.714 138.76 185.367 138.6C185.034 138.427 184.634 138.233 184.167 138.02C183.487 137.713 182.96 137.38 182.587 137.02C182.227 136.647 182.047 136.127 182.047 135.46C182.047 134.967 182.187 134.52 182.467 134.12C182.747 133.72 183.1 133.4 183.527 133.16C183.967 132.92 184.42 132.8 184.887 132.8C185.38 132.8 185.834 132.86 186.247 132.98C186.66 133.1 187.08 133.267 187.507 133.48V135.66H187.227L186.567 134.6C186.34 134.24 186.094 133.98 185.827 133.82C185.56 133.66 185.274 133.58 184.967 133.58C184.514 133.58 184.147 133.693 183.867 133.92C183.6 134.147 183.467 134.46 183.467 134.86C183.467 135.313 183.627 135.66 183.947 135.9C184.28 136.127 184.76 136.387 185.387 136.68C185.76 136.867 186.134 137.053 186.507 137.24C186.894 137.427 187.207 137.693 187.447 138.04C187.7 138.373 187.827 138.853 187.827 139.48C187.827 140.067 187.667 140.567 187.347 140.98C187.027 141.38 186.634 141.687 186.167 141.9C185.7 142.1 185.247 142.2 184.807 142.2ZM194.36 142.2C193.066 142.2 192.046 141.807 191.3 141.02C190.553 140.233 190.18 139.193 190.18 137.9C190.18 136.9 190.373 136.02 190.76 135.26C191.16 134.487 191.68 133.887 192.32 133.46C192.973 133.02 193.68 132.8 194.44 132.8C195.493 132.8 196.32 133.167 196.92 133.9C197.533 134.633 197.84 135.687 197.84 137.06L197.74 137.16H191.76C191.773 137.773 191.893 138.353 192.12 138.9C192.346 139.433 192.706 139.867 193.2 140.2C193.706 140.533 194.38 140.7 195.22 140.7C195.953 140.7 196.813 140.433 197.8 139.9H197.86V140.1C197.553 140.673 197.093 141.167 196.48 141.58C195.88 141.993 195.173 142.2 194.36 142.2ZM194.12 133.68C193.48 133.68 192.953 133.907 192.54 134.36C192.14 134.8 191.893 135.427 191.8 136.24H196.32C196.173 135.333 195.913 134.68 195.54 134.28C195.18 133.88 194.706 133.68 194.12 133.68ZM203.227 142.2C202.561 142.2 201.961 142.033 201.427 141.7C200.907 141.367 200.494 140.9 200.187 140.3C199.894 139.687 199.747 138.96 199.747 138.12C199.747 136.987 199.967 136.027 200.407 135.24C200.847 134.44 201.434 133.833 202.167 133.42C202.901 133.007 203.701 132.8 204.567 132.8C204.941 132.8 205.267 132.82 205.547 132.86C205.827 132.887 206.081 132.927 206.307 132.98V129.28L205.007 128.24V128.1L207.787 127H207.907V141.1L209.327 141.68V142H206.507L206.347 140.98H206.207C205.701 141.407 205.207 141.72 204.727 141.92C204.261 142.107 203.761 142.2 203.227 142.2ZM201.347 137.66C201.347 138.767 201.641 139.573 202.227 140.08C202.814 140.573 203.514 140.82 204.327 140.82C204.647 140.82 204.974 140.773 205.307 140.68C205.654 140.573 205.987 140.42 206.307 140.22V134.62C205.987 134.34 205.667 134.133 205.347 134C205.041 133.853 204.694 133.78 204.307 133.78C203.774 133.78 203.281 133.913 202.827 134.18C202.387 134.433 202.027 134.847 201.747 135.42C201.481 135.98 201.347 136.727 201.347 137.66ZM218.119 130.38C217.772 130.38 217.486 130.267 217.259 130.04C217.032 129.8 216.919 129.513 216.919 129.18C216.919 128.833 217.032 128.547 217.259 128.32C217.486 128.093 217.772 127.98 218.119 127.98C218.466 127.98 218.752 128.093 218.979 128.32C219.206 128.547 219.319 128.833 219.319 129.18C219.319 129.513 219.206 129.8 218.979 130.04C218.752 130.267 218.466 130.38 218.119 130.38ZM216.119 142V141.68L217.379 141.04V135.08L216.179 134.04V133.9L218.859 132.8H218.979V141.04L220.239 141.68V142H216.119ZM222.269 142V141.68L223.529 141.04V135.08L222.329 134.04V133.9L224.809 132.8H224.929L225.109 134.28H225.209C225.715 133.773 226.202 133.4 226.669 133.16C227.149 132.92 227.675 132.8 228.249 132.8C229.035 132.8 229.675 133 230.169 133.4C230.675 133.787 230.929 134.367 230.929 135.14V141.04L232.189 141.68V142H227.909V141.68L229.329 141.04V136.08C229.329 135.493 229.142 135.047 228.769 134.74C228.409 134.433 227.935 134.28 227.349 134.28C226.989 134.28 226.589 134.34 226.149 134.46C225.722 134.58 225.382 134.753 225.129 134.98V141.04L226.549 141.68V142H222.269ZM243.129 142.2C241.836 142.2 240.816 141.807 240.069 141.02C239.323 140.233 238.949 139.193 238.949 137.9C238.949 136.9 239.149 136.02 239.549 135.26C239.963 134.487 240.516 133.887 241.209 133.46C241.903 133.02 242.683 132.8 243.549 132.8C244.083 132.8 244.603 132.893 245.109 133.08C245.616 133.253 246.003 133.487 246.269 133.78C246.483 134.033 246.589 134.233 246.589 134.38C246.589 134.567 246.503 134.727 246.329 134.86L245.569 135.5H245.429L244.749 134.58C244.549 134.313 244.296 134.1 243.989 133.94C243.696 133.767 243.329 133.68 242.889 133.68C242.156 133.68 241.576 133.973 241.149 134.56C240.736 135.133 240.529 135.94 240.529 136.98C240.529 137.62 240.636 138.227 240.849 138.8C241.063 139.36 241.416 139.82 241.909 140.18C242.416 140.527 243.109 140.7 243.989 140.7C244.723 140.7 245.583 140.433 246.569 139.9H246.629V140.1C246.323 140.673 245.863 141.167 245.249 141.58C244.649 141.993 243.943 142.2 243.129 142.2ZM248.48 142V141.68L249.74 141.04V129.28L248.54 128.24V128.1L251.22 127H251.34V134.28H251.42C251.926 133.773 252.413 133.4 252.88 133.16C253.36 132.92 253.886 132.8 254.46 132.8C255.246 132.8 255.886 133 256.38 133.4C256.886 133.787 257.14 134.367 257.14 135.14V141.04L258.4 141.68V142H254.12V141.68L255.54 141.1V136.08C255.54 135.493 255.353 135.047 254.98 134.74C254.62 134.433 254.146 134.28 253.56 134.28C253.2 134.28 252.8 134.34 252.36 134.46C251.933 134.58 251.593 134.753 251.34 134.98V141.1L252.76 141.68V142H248.48ZM262.143 130.38C261.796 130.38 261.509 130.267 261.283 130.04C261.056 129.8 260.943 129.513 260.943 129.18C260.943 128.833 261.056 128.547 261.283 128.32C261.509 128.093 261.796 127.98 262.143 127.98C262.489 127.98 262.776 128.093 263.003 128.32C263.229 128.547 263.343 128.833 263.343 129.18C263.343 129.513 263.229 129.8 263.003 130.04C262.776 130.267 262.489 130.38 262.143 130.38ZM260.143 142V141.68L261.403 141.04V135.08L260.203 134.04V133.9L262.883 132.8H263.003V141.04L264.263 141.68V142H260.143ZM266.292 142V141.68L267.552 141.04V135.08L266.352 134.04V133.9L268.832 132.8H268.952L269.132 134.28H269.232C269.739 133.773 270.225 133.4 270.692 133.16C271.172 132.92 271.699 132.8 272.272 132.8C273.059 132.8 273.699 133 274.192 133.4C274.699 133.787 274.952 134.367 274.952 135.14V141.04L276.212 141.68V142H271.932V141.68L273.352 141.04V136.08C273.352 135.493 273.165 135.047 272.792 134.74C272.432 134.433 271.959 134.28 271.372 134.28C271.012 134.28 270.612 134.34 270.172 134.46C269.745 134.58 269.405 134.753 269.152 134.98V141.04L270.572 141.68V142H266.292ZM279.995 142.2C279.368 142.2 278.848 142.02 278.435 141.66C278.022 141.287 277.815 140.773 277.815 140.12C277.815 139.467 278.055 138.9 278.535 138.42C279.028 137.94 279.848 137.567 280.995 137.3L282.895 136.86V135.4C282.895 134.947 282.708 134.56 282.335 134.24C281.975 133.907 281.562 133.74 281.095 133.74C280.588 133.74 280.235 133.88 280.035 134.16C279.835 134.427 279.735 134.787 279.735 135.24V135.8L279.635 135.9H278.595C278.395 135.9 278.255 135.867 278.175 135.8C278.108 135.733 278.075 135.58 278.075 135.34C278.075 135.047 278.162 134.747 278.335 134.44C278.508 134.133 278.775 133.867 279.135 133.64C279.508 133.4 279.895 133.2 280.295 133.04C280.708 132.88 281.148 132.8 281.615 132.8C282.082 132.8 282.535 132.867 282.975 133C283.428 133.133 283.795 133.36 284.075 133.68C284.355 133.987 284.495 134.42 284.495 134.98V140.66C284.588 140.753 284.722 140.833 284.895 140.9C285.068 140.967 285.308 141 285.615 141H286.375L286.435 141.04V141.1C286.275 141.393 286.035 141.653 285.715 141.88C285.408 142.093 285.028 142.2 284.575 142.2C284.162 142.2 283.822 142.093 283.555 141.88C283.302 141.653 283.122 141.36 283.015 141H282.895C282.548 141.347 282.115 141.633 281.595 141.86C281.088 142.087 280.555 142.2 279.995 142.2ZM279.375 139.72C279.375 140.547 279.875 140.96 280.875 140.96C281.195 140.96 281.508 140.927 281.815 140.86C282.135 140.793 282.495 140.673 282.895 140.5V137.54C281.828 137.74 281.048 137.953 280.555 138.18C280.062 138.393 279.742 138.627 279.595 138.88C279.448 139.133 279.375 139.413 279.375 139.72Z" fill="black"/>
<defs>
<filter id="filter0_d" x="17" y="57" width="699" height="374" filterUnits="userSpaceOnUse" color-interpolation-filters="sRGB">
<feFlood flood-opacity="0" result="BackgroundImageFix"/>
<feColorMatrix in="SourceAlpha" type="matrix" values="0 0 0 0 0 0 0 0 0 0 0 0 0 0 0 0 0 0 127 0"/>
<feOffset/>
<feGaussianBlur stdDeviation="7.5"/>
<feColorMatrix type="matrix" values="0 0 0 0 0.137255 0 0 0 0 0.262745 0 0 0 0 0.211765 0 0 0 0.05 0"/>
<feBlend mode="normal" in2="BackgroundImageFix" result="effect1_dropShadow"/>
<feBlend mode="normal" in="SourceGraphic" in2="effect1_dropShadow" result="shape"/>
</filter>
</defs>
</svg>
