<svg width="408" height="637" viewBox="0 0 408 637" fill="none" xmlns="http://www.w3.org/2000/svg">
<g clip-path="url(#clip0)">
<path fill-rule="evenodd" clip-rule="evenodd" d="M61.4496 3.03836C128.47 3.54459 197.217 8.50576 252.864 45.8612C309.757 84.0534 344.004 145.583 368.895 209.425C395.131 276.718 423.96 351.258 398.249 418.753C372.872 485.373 298.218 514.127 238.182 552.572C182.137 588.46 127.885 638.348 61.4496 634.425C-3.88083 630.568 -47.7195 570.919 -100.743 532.559C-153.907 494.097 -220.372 469.291 -248.653 410.079C-278.74 347.085 -277.872 272.47 -256.744 205.933C-235.525 139.108 -191.195 80.6497 -132.077 42.9536C-75.1471 6.65232 -6.06751 2.52838 61.4496 3.03836Z" stroke="#E99379"/>
<path fill-rule="evenodd" clip-rule="evenodd" d="M71.7502 59.0301C124.36 59.4276 178.325 63.3234 222.006 92.6569C266.666 122.648 293.548 170.963 313.088 221.096C333.683 273.938 356.312 332.471 336.13 385.472C316.209 437.785 257.607 460.365 210.481 490.553C166.487 518.735 123.9 557.909 71.7502 554.829C20.4673 551.8 -13.9451 504.961 -55.567 474.838C-97.2999 444.636 -149.474 425.156 -171.673 378.66C-195.291 329.194 -194.609 270.602 -178.025 218.354C-161.368 165.879 -126.57 119.975 -80.1639 90.3737C-35.475 61.868 18.7508 58.6297 71.7502 59.0301Z" stroke="#E99379"/>
<path fill-rule="evenodd" clip-rule="evenodd" d="M60.5774 107.023C99.8866 107.32 140.209 110.234 172.847 132.175C206.217 154.607 226.303 190.747 240.903 228.245C256.291 267.77 273.2 311.552 258.12 351.196C243.235 390.325 199.448 407.214 164.236 429.795C131.364 450.874 99.5435 480.176 60.5774 477.872C22.2593 475.606 -3.45334 440.571 -34.5529 418.04C-65.7353 395.449 -104.719 380.879 -121.306 346.101C-138.953 309.101 -138.444 265.275 -126.052 226.194C-113.606 186.944 -87.6056 152.608 -52.9315 130.467C-19.5403 109.145 20.9767 106.723 60.5774 107.023Z" fill="#E99379" stroke="#E99379"/>
</g>
<defs>
<clipPath id="clip0">
<rect width="408" height="637" fill="white"/>
</clipPath>
</defs>
</svg>
