<svg width="600" height="419" viewBox="0 0 600 419" fill="none" xmlns="http://www.w3.org/2000/svg">
<g clip-path="url(#clip0)">
<path fill-rule="evenodd" clip-rule="evenodd" d="M97.2789 3.3713C162.045 6.81111 226.754 16.3048 280.656 52.3756C336.039 89.4372 373.564 145.293 400.466 206.261C430.019 273.238 461.542 346.201 441.355 416.57C420.919 487.804 364.958 553.46 294.38 576.058C228.261 597.229 165.141 541.386 97.2789 526.739C48.6171 516.236 1.11848 517.4 -46.3844 502.508C-118.418 479.926 -218.331 486.08 -250.406 417.742C-281.605 351.271 -208.3 282.571 -181.744 214.112C-157.131 150.661 -155.127 73.1335 -100.818 32.1152C-46.2388 -9.10769 28.9775 -0.256239 97.2789 3.3713Z" fill="#234336"/>
<path fill-rule="evenodd" clip-rule="evenodd" d="M350.287 160.187C436.765 162.402 528.285 187.337 576.115 259.417C620.727 326.646 594.268 412.832 568.723 489.365C547.061 554.265 507.082 607.968 448.165 642.754C380.781 682.539 302.552 718.592 229.956 689.379C153.121 658.46 112.245 578.72 90.4599 498.813C67.2081 413.527 55.6632 317.6 109.475 247.468C164.158 176.201 260.489 157.888 350.287 160.187Z" stroke="#E06440" stroke-width="4"/>
</g>
<defs>
<clipPath id="clip0">
<rect width="600" height="419" fill="white"/>
</clipPath>
</defs>
</svg>
