<svg width="616" height="216" viewBox="0 0 616 216" fill="none" xmlns="http://www.w3.org/2000/svg">
<g clip-path="url(#clip0)">
<path fill-rule="evenodd" clip-rule="evenodd" d="M467.279 4.3713C532.045 7.81111 596.754 17.3048 650.656 53.3756C706.039 90.4372 743.564 146.293 770.466 207.261C800.019 274.238 831.542 347.201 811.355 417.57C790.919 488.804 734.958 554.46 664.38 577.058C598.261 598.229 535.141 542.386 467.279 527.739C418.617 517.236 371.118 518.4 323.616 503.508C251.582 480.926 151.669 487.08 119.594 418.742C88.3955 352.271 161.7 283.571 188.256 215.112C212.869 151.661 214.873 74.1335 269.182 33.1152C323.761 -8.10769 398.977 0.743761 467.279 4.3713Z" fill="#234336"/>
<path fill-rule="evenodd" clip-rule="evenodd" d="M281.287 118.187C367.765 120.402 459.285 145.337 507.115 217.417C551.727 284.646 525.268 370.832 499.723 447.365C478.061 512.265 438.082 565.968 379.165 600.754C311.781 640.539 233.552 676.592 160.956 647.379C84.1206 616.46 43.2454 536.72 21.4599 456.813C-1.7919 371.527 -13.3368 275.6 40.4755 205.468C95.1583 134.201 191.489 115.888 281.287 118.187Z" stroke="#E99379" stroke-width="4"/>
</g>
<defs>
<clipPath id="clip0">
<rect width="616" height="216" fill="white"/>
</clipPath>
</defs>
</svg>
